Coordinates
version=1
nRows=6
nColumns=36
inDegrees=yes

Units are S.I. units (second, meters, Newtons, ...)
If the header above contains a line with 'inDegrees', this indicates whether rotational values are in degrees (yes) or radians (no).

endheader
time	pelvis_tilt	pelvis_list	pelvis_rotation	pelvis_tx	pelvis_ty	pelvis_tz	hip_flexion_r	hip_adduction_r	hip_rotation_r	knee_angle_r	knee_angle_r_beta	ankle_angle_r	subtalar_angle_r	mtp_angle_r	hip_flexion_l	hip_adduction_l	hip_rotation_l	knee_angle_l	knee_angle_l_beta	ankle_angle_l	subtalar_angle_l	mtp_angle_l	lumbar_extension	lumbar_bending	lumbar_rotation	arm_flex_r	arm_add_r	arm_rot_r	elbow_flex_r	pro_sup_r	arm_flex_l	arm_add_l	arm_rot_l	elbow_flex_l	pro_sup_l
      1.65416670	    -15.99351243	      2.96298171	      1.27348655	     -0.90031383	      1.12341398	     -0.06647139	     44.03141663	     -7.25254934	      3.35888945	     67.82403413	      1.18375271	     38.68396394	    -11.97413255	     -7.49999987	     45.01552022	     -1.12239032	     -1.50787808	     67.80607495	      1.18343926	     35.13033383	     -8.78045349	     -7.49999987	    -39.85344344	      0.36469196	     -0.91336910	     51.47655888	    -13.59007293	      6.38321098	     59.49162468	     74.93097094	     60.19736927	     -4.88133742	     24.27322484	     58.31870388	     65.00617910
      1.65833330	    -16.06406652	      2.91667199	      1.08958488	     -0.89834826	      1.12610572	     -0.06728124	     43.48564393	     -7.14800269	      3.38970682	     67.12590456	      1.17156805	     38.65546343	    -12.07670224	     -7.49999987	     44.53830922	     -1.27858116	     -1.74855197	     67.39164199	      1.17620604	     35.24640682	     -8.73677818	     -7.49999987	    -39.28561765	      0.15275390	     -0.61628168	     53.30670547	    -13.50944352	      6.71443213	     60.95710354	     74.34243458	     61.63625562	     -3.79447842	     23.85959873	     59.55239557	     64.27535466
      1.66250000	    -16.61990745	      2.82295523	      0.78212875	     -0.89595937	      1.12492917	     -0.06888348	     43.74104398	     -7.06294220	      3.42983240	     66.87479991	      1.16718544	     38.70343461	    -11.95163771	     -7.49999987	     44.72634608	     -1.36873618	     -1.96430788	     67.19531398	      1.17277947	     35.41136335	     -8.76787004	     -7.49999987	    -38.05317941	      0.09344549	     -0.45879173	     54.82028107	    -12.95324718	      6.97371810	     62.49824986	     73.18306712	     62.76005011	     -3.17773875	     23.47398636	     60.83576943	     63.73023927
      1.66666670	    -16.13500416	      3.05607652	     -0.05854392	     -0.88411277	      1.12199893	     -0.07515504	     42.74837377	     -7.27010436	      3.99172778	     66.77664718	      1.16547236	     38.69519496	    -12.01149934	     -7.49999987	     43.39910630	     -1.25629975	     -2.64441914	     67.15165448	      1.17201747	     35.95024137	     -8.90030156	     -7.49999987	    -37.76637573	     -0.09454990	     -0.41761491	     56.67619270	    -12.76459277	      9.23504925	     63.77135071	     76.04390580	     63.33435515	     -2.77567638	     22.37270852	     62.86212425	     59.01915913
      1.67083330	    -16.02835064	      3.19820860	     -0.82653357	     -0.87818412	      1.12320617	     -0.07612076	     42.18526861	     -7.37351832	      4.45556579	     66.53179003	      1.16119879	     38.61829009	    -12.11949331	     -7.49999987	     42.45200418	     -1.13289300	     -3.16119648	     66.83848021	      1.16655155	     36.40146923	     -9.24270076	     -7.49999987	    -36.98512687	     -0.35040499	     -0.22526919	     57.64533875	    -12.48316764	     10.66836000	     66.02863764	     75.34826879	     64.02097840	     -2.28154533	     21.04293807	     64.49313363	     58.86948432
      1.67500000	    -16.16940376	      3.34421655	     -1.41106558	     -0.87640186	      1.12157117	     -0.07410862	     42.13436278	     -7.29031382	      4.91480590	     66.56281570	      1.16174029	     38.71955159	    -12.16101528	     -7.49999987	     42.05876236	     -1.11018174	     -3.53068962	     66.63326013	      1.16296978	     36.61559034	     -9.54800552	     -7.49999987	    -35.97289976	     -0.68212976	     -0.37888345	     58.71189483	    -11.56575841	     12.41866172	     67.82251997	     73.95217696	     65.69292958	     -2.70392923	     18.71091880	     64.78536679	     58.56933874
